<?xml version="1.0" encoding="utf-8"?>
<!-- Generator: Adobe Illustrator 26.5.0, SVG Export Plug-In . SVG Version: 6.00 Build 0)  -->
<svg version="1.1" id="Layer_1" xmlns="http://www.w3.org/2000/svg" xmlns:xlink="http://www.w3.org/1999/xlink" x="0px" y="0px"
	 viewBox="0 0 22 22" style="enable-background:new 0 0 22 22;" xml:space="preserve">
<style type="text/css">
	.st0{fill:#FFFFFF;stroke:#000000;stroke-miterlimit:10;}
	.st1{stroke:#000000;stroke-miterlimit:10;}
	.st2{fill:none;stroke:#000000;stroke-width:0.75;stroke-miterlimit:10;}
	.st3{fill:#FFFFFF;stroke:#000000;stroke-width:0.75;stroke-miterlimit:10;}
</style>
<g>
	<polygon class="st0" points="20.6,18 1,18 4.6,10.2 16.6,10.2 	"/>
	<ellipse class="st1" cx="11" cy="5" rx="3.1" ry="3.1"/>
	<line class="st2" x1="8.5" y1="6.5" x2="13.5" y2="6.5"/>
	<path class="st1" d="M13.4,8.4c0.7-2.3,0.9-4,0.1-5.1C13,2.5,11.9,2,11,2c-1.5,0-2.7,1.1-3,2.3c-0.3,1-0.4,2.1,0.2,3.5
		c0.4,1,1.7,4.9,2.9,4.8C11.8,12.4,12.7,10.5,13.4,8.4z"/>
	<ellipse class="st3" cx="11" cy="4.8" rx="1.7" ry="1.8"/>
</g>
</svg>
